<svg xmlns="http://www.w3.org/2000/svg" width="900" height="620" viewBox="0 0 900 620">
  <defs>
    <linearGradient id="bg" x1="0" y1="0" x2="1" y2="1">
      <stop offset="0" stop-color="#f8fdff"/>
      <stop offset="0.55" stop-color="#bfe8ff"/>
      <stop offset="1" stop-color="#fff6fb"/>
    </linearGradient>
    <filter id="grain">
      <feTurbulence type="fractalNoise" baseFrequency=".9" numOctaves="3"/>
      <feColorMatrix type="saturate" values="0"/>
      <feComponentTransfer><feFuncA type="table" tableValues="0 .12"/></feComponentTransfer>
    </filter>
  </defs>
  <rect width="900" height="620" fill="url(#bg)"/>
  <g opacity=".55" fill="none" stroke="#5ba9d6" stroke-width="2">
    <path d="M80 430C210 370 270 520 420 455S650 335 820 410"/>
    <path d="M40 210C180 150 330 240 470 182S720 90 860 170"/>
    <path d="M130 540C260 480 410 560 540 505S720 450 850 505"/>
  </g>
  <rect x="225" y="145" width="450" height="320" rx="18" fill="#fff" opacity=".58"/>
  <path d="M360 210h180M330 270h240M315 330h270M350 390h200" stroke="#7fbadd" stroke-width="10" stroke-linecap="round" opacity=".38"/>
  <text x="450" y="510" text-anchor="middle" fill="#427ea8" font-size="32" font-family="Microsoft YaHei, sans-serif">今天好像是第一天</text>
  <rect width="900" height="620" filter="url(#grain)"/>
</svg>
