<svg xmlns="http://www.w3.org/2000/svg" width="900" height="620" viewBox="0 0 900 620">
  <defs>
    <linearGradient id="water" x1="0" y1="0" x2="0" y2="1">
      <stop offset="0" stop-color="#edfaff"/>
      <stop offset=".5" stop-color="#73b9dc"/>
      <stop offset="1" stop-color="#22475f"/>
    </linearGradient>
  </defs>
  <rect width="900" height="620" fill="url(#water)"/>
  <g opacity=".5" stroke="#ffffff" fill="none">
    <path d="M0 420C110 390 190 450 310 415S510 365 650 410 820 450 900 405" stroke-width="5"/>
    <path d="M0 480C140 430 250 520 390 470S620 420 900 490" stroke-width="3"/>
    <path d="M0 180C130 130 260 220 390 170S600 120 900 190" stroke-width="2"/>
  </g>
  <rect x="170" y="145" width="560" height="265" fill="#f8fdff" opacity=".18"/>
  <g fill="#103247" opacity=".42">
    <rect x="235" y="260" width="90" height="20"/>
    <rect x="405" y="260" width="90" height="20"/>
    <rect x="575" y="260" width="90" height="20"/>
    <rect x="250" y="282" width="12" height="120"/>
    <rect x="420" y="282" width="12" height="120"/>
    <rect x="590" y="282" width="12" height="120"/>
  </g>
  <text x="450" y="535" text-anchor="middle" fill="#e9faff" font-size="30" font-family="Microsoft YaHei, sans-serif">课桌下面一直有水</text>
</svg>
